<svg aria-hidden="true" style="position:absolute;width:0;height:0;overflow:hidden" xmlns="http://www.w3.org/2000/svg"><defs><symbol id="menu" viewBox="0 0 24 24" fill="none" xmlns="http://www.w3.org/2000/svg"><path d="M3 12h18M3 6h18M3 18h18" stroke="#F4F4F4" stroke-width="2.5" stroke-linecap="round" stroke-linejoin="round"/></symbol><symbol id="close" viewBox="0 0 24 25" fill="none" xmlns="http://www.w3.org/2000/svg"><path d="m18 6.5-12 12m0-12 12 12" stroke="#F4F4F4" stroke-width="2.5" stroke-linecap="round" stroke-linejoin="round"/></symbol><symbol id="instagram" viewBox="0 0 21 20" fill="none" xmlns="http://www.w3.org/2000/svg"><g clip-path="url(#clip0_311_911)" fill="#BE0F45"><path d="M10.5 1.8c2.672 0 2.988.012 4.04.06.976.042 1.503.206 1.855.343.464.18.8.399 1.148.746.352.352.566.684.746 1.149.137.351.3.882.344 1.855.047 1.055.058 1.371.058 4.04 0 2.671-.011 2.987-.058 4.038-.043.977-.207 1.504-.344 1.856-.18.465-.398.8-.746 1.148a3.077 3.077 0 0 1-1.148.746c-.352.137-.883.301-1.856.344-1.055.047-1.371.059-4.039.059-2.672 0-2.988-.012-4.04-.059-.976-.043-1.503-.207-1.855-.344a3.1 3.1 0 0 1-1.148-.746 3.076 3.076 0 0 1-.746-1.148c-.137-.352-.3-.883-.344-1.856-.047-1.054-.058-1.37-.058-4.039 0-2.672.011-2.988.058-4.039.043-.976.207-1.504.344-1.855.18-.465.398-.801.746-1.149a3.076 3.076 0 0 1 1.148-.746c.352-.137.883-.3 1.856-.344 1.05-.046 1.367-.058 4.039-.058Zm0-1.8C7.785 0 7.445.012 6.379.059 5.316.105 4.586.277 3.953.523A4.88 4.88 0 0 0 2.18 1.68a4.9 4.9 0 0 0-1.157 1.77C.777 4.085.605 4.811.56 5.874.512 6.945.5 7.285.5 10s.012 3.055.059 4.121c.046 1.063.218 1.793.464 2.426.258.66.598 1.219 1.157 1.773a4.888 4.888 0 0 0 1.77 1.153c.636.246 1.362.418 2.425.465 1.066.046 1.406.058 4.121.058 2.715 0 3.055-.012 4.121-.058 1.063-.047 1.793-.22 2.426-.465a4.888 4.888 0 0 0 1.77-1.153 4.888 4.888 0 0 0 1.152-1.77c.246-.636.418-1.363.465-2.425.047-1.066.058-1.406.058-4.121 0-2.715-.011-3.055-.058-4.121-.047-1.063-.22-1.793-.465-2.426A4.683 4.683 0 0 0 18.82 1.68 4.889 4.889 0 0 0 17.05.527C16.415.281 15.688.11 14.626.062 13.555.012 13.215 0 10.5 0Z"/><path d="M10.5 4.863A5.138 5.138 0 0 0 5.363 10a5.138 5.138 0 0 0 10.273 0c0-2.836-2.3-5.137-5.136-5.137Zm0 8.469a3.333 3.333 0 1 1 .001-6.665 3.333 3.333 0 0 1-.001 6.665Zm6.54-8.672a1.2 1.2 0 1 1-2.4 0 1.2 1.2 0 0 1 2.4 0Z"/></g><defs><clipPath id="clip0_311_911"><path fill="#fff" transform="translate(.5)" d="M0 0h20v20H0z"/></clipPath><symbol id="facebook" viewBox="0 0 21 20" fill="none" xmlns="http://www.w3.org/2000/svg"><g clip-path="url(#clip0_311_912)"><path d="M20.5 10c0-5.523-4.477-10-10-10S.5 4.477.5 10c0 4.991 3.657 9.128 8.438 9.878v-6.987h-2.54V10h2.54V7.797c0-2.506 1.492-3.89 3.777-3.89 1.093 0 2.238.195 2.238.195v2.46h-1.26c-1.243 0-1.63.771-1.63 1.563V10h2.773l-.443 2.89h-2.33v6.988c4.78-.75 8.437-4.887 8.437-9.878Z" fill="#1877F2"/><path d="m14.393 12.89.443-2.89h-2.774V8.125c0-.79.388-1.563 1.63-1.563h1.261v-2.46s-1.144-.196-2.238-.196c-2.284 0-3.777 1.385-3.777 3.89V10h-2.54v2.89h2.54v6.988a10.04 10.04 0 0 0 3.124 0v-6.987h2.33Z" fill="#fff"/></g><defs><clipPath id="clip0_311_912"><path fill="#fff" transform="translate(.5)" d="M0 0h20v20H0z"/></clipPath></defs></symbol></defs></symbol><symbol id="tiktok" viewBox="0 0 21 20" fill="none" xmlns="http://www.w3.org/2000/svg"><path d="M14.814 7.22a7.802 7.802 0 0 0 4.563 1.465V5.399c-.322 0-.643-.034-.958-.1v2.586a7.803 7.803 0 0 1-4.563-1.466v6.707c0 3.354-2.71 6.074-6.053 6.074a6.008 6.008 0 0 1-3.37-1.027A6.024 6.024 0 0 0 8.762 20c3.343 0 6.053-2.72 6.053-6.074V7.22Zm1.182-3.316a4.588 4.588 0 0 1-1.182-2.681V.8h-.908a4.601 4.601 0 0 0 2.09 3.104ZM6.548 15.598a2.773 2.773 0 0 1-.565-1.682 2.774 2.774 0 0 1 3.609-2.648v-3.36a6.083 6.083 0 0 0-.958-.055v2.615a2.773 2.773 0 0 0-3.609 2.648 2.78 2.78 0 0 0 1.523 2.482Z" fill="#FF004F"/><path d="M13.856 6.42a7.803 7.803 0 0 0 4.563 1.465V5.298a4.577 4.577 0 0 1-2.422-1.394A4.601 4.601 0 0 1 13.907.8H11.52v13.125a2.774 2.774 0 0 1-2.769 2.77c-.9 0-1.698-.43-2.204-1.097a2.78 2.78 0 0 1-1.523-2.482 2.774 2.774 0 0 1 3.609-2.648V7.853c-3.284.068-5.925 2.76-5.925 6.072a6.07 6.07 0 0 0 1.725 4.248 6.009 6.009 0 0 0 3.37 1.027c3.342 0 6.052-2.72 6.052-6.074V6.419Z" fill="#000"/><path d="M18.419 5.298v-.7a4.55 4.55 0 0 1-2.423-.694 4.572 4.572 0 0 0 2.423 1.394ZM13.906.8a4.698 4.698 0 0 1-.05-.377V0h-3.294v13.126a2.774 2.774 0 0 1-2.769 2.769 2.75 2.75 0 0 1-1.246-.297 2.762 2.762 0 0 0 2.204 1.097 2.774 2.774 0 0 0 2.77-2.77V.8h2.385ZM8.633 7.853v-.745a6.089 6.089 0 0 0-.83-.056c-3.343 0-6.053 2.72-6.053 6.074a6.074 6.074 0 0 0 2.683 5.046 6.065 6.065 0 0 1-1.725-4.247c0-3.311 2.641-6.004 5.925-6.072Z" fill="#00F2EA"/></symbol><symbol id="close-form" viewBox="0 0 16 16" fill="none" xmlns="http://www.w3.org/2000/svg"><path d="m12 4-8 8m0-8 8 8" stroke="#1E1E1E" stroke-width="1.6" stroke-linecap="round" stroke-linejoin="round"/></symbol></defs></svg>