<svg aria-hidden="true" style="position:absolute;width: 0; height: 0;overflow:hidden" version="1.1" xmlns="http://www.w3.org/2000/svg"><defs><symbol id="menu"  viewBox="0 0 24 24" fill="none" xmlns="http://www.w3.org/2000/svg"><path d="M3 12H21M3 6H21M3 18H21" stroke="#F4F4F4" stroke-width="2.5" stroke-linecap="round" stroke-linejoin="round"/></symbol><symbol id="close"  viewBox="0 0 24 25" fill="none" xmlns="http://www.w3.org/2000/svg"><path d="M18 6.5L6 18.5M6 6.5L18 18.5" stroke="#F4F4F4" stroke-width="2.5" stroke-linecap="round" stroke-linejoin="round"/></symbol><symbol id="instagram" viewBox="0 0 21 20" fill="none" xmlns="http://www.w3.org/2000/svg"><g clip-path="url(#clip0_311_911)"><path d="M10.5 1.80078C13.1719 1.80078 13.4883 1.8125 14.5391 1.85937C15.5156 1.90234 16.043 2.06641 16.3945 2.20313C16.8594 2.38281 17.1953 2.60156 17.543 2.94922C17.8945 3.30078 18.1094 3.63281 18.2891 4.09766C18.4258 4.44922 18.5898 4.98047 18.6328 5.95312C18.6797 7.00781 18.6914 7.32422 18.6914 9.99219C18.6914 12.6641 18.6797 12.9805 18.6328 14.0313C18.5898 15.0078 18.4258 15.5352 18.2891 15.8867C18.1094 16.3516 17.8906 16.6875 17.543 17.0352C17.1914 17.3867 16.8594 17.6016 16.3945 17.7813C16.043 17.918 15.5117 18.082 14.5391 18.125C13.4844 18.1719 13.168 18.1836 10.5 18.1836C7.82813 18.1836 7.51172 18.1719 6.46094 18.125C5.48438 18.082 4.95703 17.918 4.60547 17.7813C4.14063 17.6016 3.80469 17.3828 3.45703 17.0352C3.10547 16.6836 2.89063 16.3516 2.71094 15.8867C2.57422 15.5352 2.41016 15.0039 2.36719 14.0313C2.32031 12.9766 2.30859 12.6602 2.30859 9.99219C2.30859 7.32031 2.32031 7.00391 2.36719 5.95312C2.41016 4.97656 2.57422 4.44922 2.71094 4.09766C2.89063 3.63281 3.10938 3.29688 3.45703 2.94922C3.80859 2.59766 4.14063 2.38281 4.60547 2.20313C4.95703 2.06641 5.48828 1.90234 6.46094 1.85937C7.51172 1.8125 7.82813 1.80078 10.5 1.80078ZM10.5 0C7.78516 0 7.44531 0.0117187 6.37891 0.0585938C5.31641 0.105469 4.58594 0.277344 3.95313 0.523438C3.29297 0.78125 2.73438 1.12109 2.17969 1.67969C1.62109 2.23438 1.28125 2.79297 1.02344 3.44922C0.777344 4.08594 0.605469 4.8125 0.558594 5.875C0.511719 6.94531 0.5 7.28516 0.5 10C0.5 12.7148 0.511719 13.0547 0.558594 14.1211C0.605469 15.1836 0.777344 15.9141 1.02344 16.5469C1.28125 17.207 1.62109 17.7656 2.17969 18.3203C2.73438 18.875 3.29297 19.2188 3.94922 19.4727C4.58594 19.7188 5.3125 19.8906 6.375 19.9375C7.44141 19.9844 7.78125 19.9961 10.4961 19.9961C13.2109 19.9961 13.5508 19.9844 14.6172 19.9375C15.6797 19.8906 16.4102 19.7188 17.043 19.4727C17.6992 19.2188 18.2578 18.875 18.8125 18.3203C19.3672 17.7656 19.7109 17.207 19.9648 16.5508C20.2109 15.9141 20.3828 15.1875 20.4297 14.125C20.4766 13.0586 20.4883 12.7188 20.4883 10.0039C20.4883 7.28906 20.4766 6.94922 20.4297 5.88281C20.3828 4.82031 20.2109 4.08984 19.9648 3.45703C19.7188 2.79297 19.3789 2.23438 18.8203 1.67969C18.2656 1.125 17.707 0.78125 17.0508 0.527344C16.4141 0.28125 15.6875 0.109375 14.625 0.0625C13.5547 0.0117188 13.2148 0 10.5 0Z" fill="#BE0F45"/>
<path d="M10.5 4.86328C7.66406 4.86328 5.36328 7.16406 5.36328 10C5.36328 12.8359 7.66406 15.1367 10.5 15.1367C13.3359 15.1367 15.6367 12.8359 15.6367 10C15.6367 7.16406 13.3359 4.86328 10.5 4.86328ZM10.5 13.332C8.66016 13.332 7.16797 11.8398 7.16797 10C7.16797 8.16016 8.66016 6.66797 10.5 6.66797C12.3398 6.66797 13.832 8.16016 13.832 10C13.832 11.8398 12.3398 13.332 10.5 13.332Z" fill="#BE0F45"/><path d="M17.0391 4.66016C17.0391 5.32422 16.5 5.85938 15.8398 5.85938C15.1758 5.85938 14.6406 5.32031 14.6406 4.66016C14.6406 3.99609 15.1797 3.46094 15.8398 3.46094C16.5 3.46094 17.0391 4 17.0391 4.66016Z" fill="#BE0F45"/></g><defs><clipPath id="clip0_311_911"><rect width="20" height="20" fill="white" transform="translate(0.5)"/></clipPath><symbol id="facebook" width="21" height="20" viewBox="0 0 21 20" fill="none" xmlns="http://www.w3.org/2000/svg">
<g clip-path="url(#clip0_311_912)">
<path d="M20.5 10C20.5 4.47715 16.0229 0 10.5 0C4.97715 0 0.5 4.47715 0.5 10C0.5 14.9912 4.15684 19.1283 8.9375 19.8785V12.8906H6.39844V10H8.9375V7.79688C8.9375 5.29063 10.4305 3.90625 12.7146 3.90625C13.8084 3.90625 14.9531 4.10156 14.9531 4.10156V6.5625H13.6922C12.45 6.5625 12.0625 7.3334 12.0625 8.125V10H14.8359L14.3926 12.8906H12.0625V19.8785C16.8432 19.1283 20.5 14.9912 20.5 10Z" fill="#1877F2"/>
<path d="M14.3926 12.8906L14.8359 10H12.0625V8.125C12.0625 7.33418 12.45 6.5625 13.6922 6.5625H14.9531V4.10156C14.9531 4.10156 13.8088 3.90625 12.7146 3.90625C10.4305 3.90625 8.9375 5.29063 8.9375 7.79688V10H6.39844V12.8906H8.9375V19.8785C9.97287 20.0405 11.0271 20.0405 12.0625 19.8785V12.8906H14.3926Z" fill="white"/>
</g>
<defs>
<clipPath id="clip0_311_912">
<rect width="20" height="20" fill="white" transform="translate(0.5)"/>
</clipPath>
</defs>
</symbol>
</defs></symbol><symbol id ="tiktok" width="21" height="20" viewBox="0 0 21 20" fill="none" xmlns="http://www.w3.org/2000/svg">
<path d="M14.814 7.21952C16.1001 8.14216 17.6757 8.68503 19.3774 8.68503V5.3988C19.0553 5.39887 18.7341 5.36517 18.419 5.29818V7.8849C16.7175 7.8849 15.1421 7.34204 13.8557 6.41946V13.1257C13.8557 16.4805 11.1457 19.1999 7.80306 19.1999C6.55583 19.1999 5.39658 18.8215 4.43359 18.1725C5.53269 19.3003 7.06546 19.9999 8.7612 19.9999C12.1041 19.9999 14.8141 17.2805 14.8141 13.9256V7.21952H14.814ZM15.9962 3.90412C15.3389 3.18348 14.9074 2.25219 14.814 1.22261V0.799927H13.9058C14.1344 2.10853 14.9142 3.22652 15.9962 3.90412ZM6.54783 15.5981C6.1806 15.1149 5.98215 14.5238 5.98304 13.916C5.98304 12.3816 7.22255 11.1376 8.75176 11.1376C9.03676 11.1375 9.32004 11.1813 9.59164 11.2678V7.9081C9.27424 7.86445 8.9539 7.84591 8.63371 7.85271V10.4677C8.36191 10.3812 8.07848 10.3373 7.79342 10.3376C6.26421 10.3376 5.02477 11.5815 5.02477 13.1161C5.02477 14.2011 5.64432 15.1405 6.54783 15.5981Z" fill="#FF004F"/>
<path d="M13.8561 6.41939C15.1426 7.34197 16.7179 7.88483 18.4195 7.88483V5.29811C17.4697 5.09507 16.6289 4.59696 15.9967 3.90412C14.9145 3.22645 14.1349 2.10846 13.9063 0.799927H11.5208V13.9255C11.5154 15.4556 10.278 16.6946 8.75208 16.6946C7.85287 16.6946 7.05402 16.2645 6.54809 15.5981C5.64464 15.1405 5.02509 14.2011 5.02509 13.1161C5.02509 11.5817 6.26453 10.3376 7.79374 10.3376C8.08673 10.3376 8.36913 10.3834 8.63403 10.4678V7.85278C5.35008 7.92087 2.70898 10.6137 2.70898 13.9255C2.70898 15.5788 3.36668 17.0775 4.43412 18.1726C5.39711 18.8215 6.55636 19.2 7.80359 19.2C11.1463 19.2 13.8562 16.4804 13.8562 13.1257V6.41939H13.8561Z" fill="black"/>
<path d="M18.4188 5.29817V4.59874C17.5623 4.60004 16.7226 4.35932 15.996 3.90411C16.6392 4.61089 17.4863 5.09822 18.4188 5.29817ZM13.9056 0.799986C13.8838 0.674926 13.867 0.549042 13.8554 0.422678V0H10.5617V13.1257C10.5564 14.6556 9.3191 15.8946 7.79303 15.8946C7.345 15.8946 6.92199 15.7879 6.54737 15.5983C7.05331 16.2645 7.85216 16.6946 8.75137 16.6946C10.2772 16.6946 11.5148 15.4558 11.5201 13.9256V0.799986H13.9056ZM8.63345 7.85284V7.10824C8.35823 7.07049 8.08076 7.05155 7.80294 7.05169C4.45993 7.05162 1.75 9.77116 1.75 13.1257C1.75 15.2288 2.81505 17.0822 4.43347 18.1725C3.36603 17.0775 2.70834 15.5787 2.70834 13.9255C2.70834 10.6138 5.34936 7.92093 8.63345 7.85284Z" fill="#00F2EA"/>
</symbol><symbol id ="close-form" width="16" height="16" viewBox="0 0 16 16" fill="none" xmlns="http://www.w3.org/2000/svg">
  <path d="M12 4L4 12M4 4L12 12" stroke="#1E1E1E" stroke-width="1.6" stroke-linecap="round" stroke-linejoin="round" />
</symbol><symbol  id ="arrow"  viewBox="0 0 12 12" fill="none" xmlns="http://www.w3.org/2000/svg">
  <path d="M1 11L11 1M11 1H1M11 1V11" stroke="none" stroke-width="2" stroke-linecap="round" stroke-linejoin="round" />
</symbol><symbol id ="arrow-left" viewBox="0 0 16 16" fill="none" xmlns="http://www.w3.org/2000/svg">
  <path d="M12.6673 7.99992H3.33398M3.33398 7.99992L8.00065 12.6666M3.33398 7.99992L8.00065 3.33325" stroke="none" stroke-width="1.6" stroke-linecap="round" stroke-linejoin="round" />
</symbol><symbol id ="swiper-arrow-left" viewBox="0 0 20 20" fill="none" xmlns="http://www.w3.org/2000/svg">
  <path d="M12.5 15L7.5 10L12.5 5" stroke="#F3F3F3" stroke-width="2" stroke-linecap="round" stroke-linejoin="round" />
</symbol><symbol id ="swiper-arrow-right" viewBox="0 0 20 20" fill="none" xmlns="http://www.w3.org/2000/svg">
  <path d="M7.5 15L12.5 10L7.5 5" stroke="#F3F3F3" stroke-width="2" stroke-linecap="round" stroke-linejoin="round" />
</symbol><symbol id ="button-youtube" viewBox="0 0 49 36" fill="none" xmlns="http://www.w3.org/2000/svg">
  <path d="M45.7686 7.34C45.5311 6.39082 45.0472 5.52114 44.366 4.81881C43.6847 4.11648 42.8302 3.60637 41.8886 3.34C38.4486 2.5 24.6886 2.5 24.6886 2.5C24.6886 2.5 10.9286 2.5 7.48864 3.42C6.54714 3.68637 5.6926 4.19648 5.01134 4.89881C4.33008 5.60114 3.84622 6.47082 3.60864 7.42C2.97907 10.9111 2.67112 14.4526 2.68864 18C2.6662 21.5741 2.97418 25.1426 3.60864 28.66C3.87056 29.5797 4.36526 30.4163 5.04493 31.089C5.72461 31.7616 6.56628 32.2476 7.48864 32.5C10.9286 33.42 24.6886 33.42 24.6886 33.42C24.6886 33.42 38.4486 33.42 41.8886 32.5C42.8302 32.2336 43.6847 31.7235 44.366 31.0212C45.0472 30.3189 45.5311 29.4492 45.7686 28.5C46.3934 25.0352 46.7013 21.5207 46.6886 18C46.7111 14.4259 46.4031 10.8574 45.7686 7.34Z" stroke="none" stroke-width="4" stroke-linecap="round" stroke-linejoin="round" />
  <path d="M20.1886 24.54L31.6886 18L20.1886 11.46V24.54Z" stroke="none" stroke-width="4" stroke-linecap="round" stroke-linejoin="round" />
</symbol><symbol id ="arrow-bottom" viewBox="0 0 20 20" fill="none" xmlns="http://www.w3.org/2000/svg">
  <path d="M5 7.5L10 12.5L15 7.5" stroke="#F4F4F4" stroke-width="2" stroke-linecap="round" stroke-linejoin="round" />
</symbol>

</defs></svg>
